Coordinates
version=1
nRows=6
nColumns=36
inDegrees=yes

Units are S.I. units (second, meters, Newtons, ...)
If the header above contains a line with 'inDegrees', this indicates whether rotational values are in degrees (yes) or radians (no).

endheader
time	pelvis_tilt	pelvis_list	pelvis_rotation	pelvis_tx	pelvis_ty	pelvis_tz	hip_flexion_r	hip_adduction_r	hip_rotation_r	knee_angle_r	knee_angle_r_beta	ankle_angle_r	subtalar_angle_r	mtp_angle_r	hip_flexion_l	hip_adduction_l	hip_rotation_l	knee_angle_l	knee_angle_l_beta	ankle_angle_l	subtalar_angle_l	mtp_angle_l	lumbar_extension	lumbar_bending	lumbar_rotation	arm_flex_r	arm_add_r	arm_rot_r	elbow_flex_r	pro_sup_r	arm_flex_l	arm_add_l	arm_rot_l	elbow_flex_l	pro_sup_l
      0.58000000	     -5.75700780	      6.21222959	     87.13932059	     -0.26063912	      0.94822396	      0.27298085	    -10.63652805	     -9.77860483	     -3.12441933	     45.59722400	      0.79582169	    -28.92037330	     -6.83350179	     -7.50090440	     13.67379797	      7.13838590	    -10.56370047	     22.58855348	      0.39424463	      0.65142862	     -4.86326820	     -7.50090440	    -15.69965609	     -7.43673580	      2.25974635	      3.64672787	     -5.38976730	    -20.34491129	     62.40543777	    105.06537040	     -4.38457568	     -5.43802927	    -39.67699908	     27.94886687	     87.82203031
      0.59000000	     -5.93132416	      6.07482930	     86.80904598	     -0.26119819	      0.94951864	      0.26078954	     -8.77207064	    -10.15194849	     -2.20747294	     48.39214333	      0.84460223	    -31.41132883	     -8.89685686	     -7.50087638	     12.77384949	      7.41579579	    -10.87725583	     22.11824927	      0.38603627	      1.40905716	     -4.52428610	     -7.50087638	    -15.53188296	     -7.64794614	      2.26836489	      3.39583999	     -5.24308240	    -20.43764453	     62.13699642	    105.43522762	     -4.00144200	     -5.43984228	    -39.73226305	     27.88892252	     87.99330816
      0.60000000	     -5.94618418	      6.07791408	     86.37600535	     -0.26148718	      0.95133536	      0.24907073	     -6.97178347	    -10.50369791	     -1.69213230	     51.02659880	      0.89058216	    -32.46030391	    -10.56569910	     -7.50085371	     11.66602672	      7.50112446	    -11.33477381	     21.52681289	      0.37571376	      2.10671525	     -3.97224753	     -7.50085371	    -15.58282428	     -7.70747079	      2.29530903	      3.32124007	     -5.15670141	    -20.38249584	     61.76361077	    105.64941235	     -3.52210533	     -5.39138662	    -39.81681850	     27.88259107	     88.10353248
      0.61000000	     -5.90406799	      5.89881908	     85.89372340	     -0.26162925	      0.95304961	      0.23770102	     -4.91083167	    -10.72664961	     -1.11613975	     53.51389571	      0.93399368	    -32.42852463	    -12.88407367	     -7.50080820	     10.73671382	      7.49628932	    -11.91894293	     20.85284659	      0.36395083	      2.71333449	     -3.23558732	     -7.50080820	    -15.48300107	     -7.68033172	      2.33322319	      3.29774431	     -5.10050866	    -20.30345359	     61.38182319	    105.31644191	     -3.00460144	     -5.36099035	    -39.80968987	     27.85576964	     87.92351672
      0.62000000	     -5.93803194	      5.84144809	     85.55164443	     -0.26197947	      0.95498594	      0.22622164	     -3.06768825	    -11.04566534	     -0.94155682	     55.74237105	      0.97288791	    -30.74772389	    -15.55343156	     -7.50077686	      9.55838014	      7.66901698	    -12.26409467	     19.94528521	      0.34811090	      3.20633052	     -2.62983887	     -7.50077686	    -15.51827583	     -7.74102721	      2.24348439	      3.23645372	     -5.11325770	    -20.14552057	     60.91942106	    104.87622751	     -2.48613747	     -5.41578727	    -39.63204654	     27.87277513	     87.67821082
      0.63000000	     -5.87525024	      5.72114677	     85.17823018	     -0.26209744	      0.95681995	      0.21517628	     -1.05620561	    -11.14382170	     -0.72172673	     57.81914490	      1.00913445	    -27.92632856	    -18.26916179	     -7.50074685	      8.50298502	      7.71360228	    -12.56929043	     19.07758774	      0.33296672	      3.64957658	     -2.04840612	     -7.50074685	    -15.54804167	     -7.69163991	      2.16290893	      3.24838367	     -5.02185755	    -19.97091786	     60.55785838	    104.30738962	     -1.90655508	     -5.38628179	    -39.40324125	     28.10579528	     87.36188899
